<svg width="28" height="32" viewBox="0 0 28 32" fill="none" xmlns="http://www.w3.org/2000/svg">
<g id="Layer 98">
<path id="Vector" d="M26.9168 22.0833C26.3002 20.9166 25.5335 19.7833 24.9502 18.6499C24.3806 17.633 24.0554 16.4975 24.0002 15.3333V12.3499C24.0032 9.82685 23.1048 7.3857 21.4668 5.46659C19.9852 3.70847 17.9318 2.52833 15.6668 2.13325V1.99992C15.6668 1.55789 15.4912 1.13397 15.1787 0.821407C14.8661 0.508847 14.4422 0.333252 14.0002 0.333252C13.5581 0.333252 13.1342 0.508847 12.8217 0.821407C12.5091 1.13397 12.3335 1.55789 12.3335 1.99992V2.14992C10.0051 2.54349 7.89105 3.74839 6.36582 5.55121C4.84059 7.35403 4.00257 9.63846 4.00018 11.9999V15.3333C3.94751 16.5032 3.62219 17.6447 3.05018 18.6666C2.46684 19.7999 1.70018 20.9333 1.08351 22.0999C0.744774 22.7207 0.612266 23.4332 0.705145 24.1343C0.798023 24.8354 1.11147 25.4887 1.60018 25.9999C1.91282 26.3189 2.28637 26.5718 2.69866 26.7436C3.11094 26.9153 3.55354 27.0025 4.00018 26.9999H9.00018C9.00018 28.326 9.52696 29.5978 10.4646 30.5355C11.4023 31.4731 12.6741 31.9999 14.0002 31.9999C15.3263 31.9999 16.598 31.4731 17.5357 30.5355C18.4734 29.5978 19.0002 28.326 19.0002 26.9999H24.0002C24.448 27.0004 24.8913 26.9106 25.3037 26.7359C25.716 26.5612 26.0889 26.3052 26.4002 25.9832C26.8889 25.4721 27.2023 24.8187 27.2952 24.1176C27.3881 23.4165 27.2556 22.7041 26.9168 22.0833ZM14.0002 28.6666C13.5581 28.6666 13.1342 28.491 12.8217 28.1784C12.5091 27.8659 12.3335 27.4419 12.3335 26.9999H15.6668C15.6668 27.4419 15.4912 27.8659 15.1787 28.1784C14.8661 28.491 14.4422 28.6666 14.0002 28.6666ZM4.00018 23.6666C4.50018 22.7333 5.30018 21.5499 6.00018 20.1666C6.82656 18.686 7.28392 17.0281 7.33351 15.3333V11.9999C7.33351 10.2318 8.03589 8.53612 9.28613 7.28587C10.5364 6.03563 12.2321 5.33325 14.0002 5.33325H14.6668C15.5049 5.41279 16.3191 5.65688 17.0626 6.05156C17.8062 6.44623 18.4646 6.98372 19.0002 7.63325C20.0939 8.96011 20.6841 10.6305 20.6668 12.3499V15.3333C20.714 17.021 21.1655 18.6729 21.9835 20.1499C22.6835 21.5333 23.4835 22.7166 23.9835 23.6499H4.00018V23.6666Z" fill="#222221"/>
</g>
</svg>
