<svg width="35" height="32" viewBox="0 0 35 32" fill="none" xmlns="http://www.w3.org/2000/svg">
<g id="Layer 18">
<path id="Vector" d="M35.0002 15.7939C34.9451 14.4266 34.3675 13.1326 33.3863 12.1787C32.4613 11.2259 31.3666 10.4541 30.1584 9.90303C30.1584 9.90303 30.0777 9.90303 30.0131 9.80619L7.98273 0.525981C7.34116 0.245189 6.64945 0.0969656 5.94916 0.0902148C5.24721 0.0795131 4.55015 0.208537 3.89854 0.469778C3.24692 0.731018 2.65378 1.11926 2.15363 1.6119C1.65348 2.10454 1.25632 2.69174 0.985248 3.33932C0.71418 3.98691 0.574625 4.68194 0.574707 5.38397C0.602434 6.32422 0.827902 7.24809 1.23643 8.0954L4.22223 15.7939L1.23643 23.5086C0.831926 24.3574 0.606669 25.2804 0.574707 26.2201C0.574655 26.9228 0.714109 27.6186 0.984984 28.2671C1.25586 28.9156 1.65277 29.5038 2.15269 29.9977C2.65262 30.4916 3.24562 30.8814 3.89732 31.1444C4.54901 31.4075 5.24644 31.5385 5.94916 31.5299C6.66034 31.5276 7.36347 31.3793 8.01501 31.0942L29.9809 21.814C30.0569 21.775 30.1275 21.7262 30.1907 21.6687C31.412 21.0693 32.5076 20.2421 33.4186 19.2317C33.8641 18.7524 34.2341 18.2082 34.5161 17.6177C34.8082 17.0523 34.9735 16.4298 35.0002 15.7939ZM5.94916 3.31811C6.30414 3.31944 6.65335 3.40812 6.96595 3.57635C7.03749 3.61283 7.11343 3.63995 7.1919 3.65704L27.8989 12.4369C28.9639 12.839 29.948 13.4294 30.804 14.18H7.06278L3.964 6.20708C3.87153 5.94791 3.82245 5.67526 3.81875 5.40011C3.81644 5.12194 3.87033 4.84617 3.97719 4.58934C4.08405 4.33251 4.24169 4.09991 4.44064 3.90548C4.63958 3.71106 4.87575 3.55881 5.13497 3.45788C5.39419 3.35695 5.67112 3.30941 5.94916 3.31811ZM3.80261 26.2201C3.81182 25.9665 3.86084 25.716 3.94786 25.4776L7.06278 17.4079H30.6749C29.866 18.1526 28.9243 18.7384 27.8989 19.1348L7.1112 27.947H6.88525C6.57689 28.1276 6.22581 28.2223 5.86846 28.2214C5.33278 28.2176 4.81915 28.0075 4.4344 27.6348C4.04964 27.262 3.82336 26.7553 3.80261 26.2201Z" fill="#222221"/>
</g>
</svg>
